<svg width="30" height="30" viewBox="0 0 30 30" fill="none" xmlns="http://www.w3.org/2000/svg">
  <defs>
    <mask id="IGSocialMask1">
      <rect width="100%" height="100%" fill="#FFFFFF" x="0" y="0"></rect>
    </mask>
  </defs>
  <g class="icon-hover__hidden">
    <path fill-rule="evenodd" clip-rule="evenodd" d="M29.1689 15C29.1689 23.2843 22.6392 30 14.5844 30C6.52967 30 0 23.2843 0 15C0 6.71573 6.52967 0 14.5844 0C22.6392 0 29.1689 6.71573 29.1689 15ZM7.75398 7.96582H22.4347C23.4474 7.96841 24.2677 8.79906 24.2702 9.82452V20.9744C24.2677 21.9998 23.4474 22.8305 22.4347 22.8331H7.75398C6.74131 22.8305 5.92101 21.9998 5.91846 20.9744L5.92773 9.82452C5.92646 8.80106 6.7434 7.9697 7.75398 7.96582ZM15.0938 16.3276L22.4347 11.682L22.4359 9.82452L15.0949 14.4701L7.75398 9.82452V11.682L15.0938 16.3276Z" fill="#121212"/>
  </g>
  <g class="icon-hover__showed" mask="url(#IGSocialMask1)">
    <path fill-rule="evenodd" clip-rule="evenodd" d="M29.1689 15C29.1689 23.2843 22.6392 30 14.5844 30C6.52967 30 0 23.2843 0 15C0 6.71573 6.52967 0 14.5844 0C22.6392 0 29.1689 6.71573 29.1689 15ZM7.75398 7.96582H22.4347C23.4474 7.96841 24.2677 8.79906 24.2702 9.82452V20.9744C24.2677 21.9998 23.4474 22.8305 22.4347 22.8331H7.75398C6.74131 22.8305 5.92101 21.9998 5.91846 20.9744L5.92773 9.82452C5.92646 8.80106 6.7434 7.9697 7.75398 7.96582ZM15.0938 16.3276L22.4347 11.682L22.4359 9.82452L15.0949 14.4701L7.75398 9.82452V11.682L15.0938 16.3276Z" fill="#121212"/>
  </g>
</svg>