<svg width="29" height="30" viewBox="0 0 29 30" fill="none" xmlns="http://www.w3.org/2000/svg">
  <defs>
    <mask id="FBSocialMask1">
      <rect width="100%" height="100%" fill="#FFFFFF" x="0" y="0"></rect>
    </mask>
  </defs>
  <g class="icon-hover__hidden">
    <path d="M28.7744 14.7769C28.7785 6.73079 22.3406 0.204667 14.3948 0.200319C6.44894 0.19609 0.00417893 6.7154 2.00528e-06 14.7615C-0.00371082 21.9342 5.14876 28.0425 12.1456 29.1601V18.9866H8.49192V14.7769H12.1456V11.5682C12.1456 7.91897 14.2909 5.89696 17.5744 5.89696C18.6531 5.91212 19.7291 6.00716 20.7941 6.18129V9.77414H18.983C17.8446 9.62164 16.7996 10.4324 16.649 11.5851C16.6289 11.7388 16.6257 11.8944 16.6392 12.0488V14.7828H20.6282L19.9901 18.9924H16.6404V29.1601C23.6269 28.0383 28.7715 21.9399 28.7744 14.7769V14.7769Z" fill="#121212"/>
  </g>
  <g class="icon-hover__showed" mask="url(#FBSocialMask1)">
    <path d="M28.7744 14.7769C28.7785 6.73079 22.3406 0.204667 14.3948 0.200319C6.44894 0.19609 0.00417893 6.7154 2.00528e-06 14.7615C-0.00371082 21.9342 5.14876 28.0425 12.1456 29.1601V18.9866H8.49192V14.7769H12.1456V11.5682C12.1456 7.91897 14.2909 5.89696 17.5744 5.89696C18.6531 5.91212 19.7291 6.00716 20.7941 6.18129V9.77414H18.983C17.8446 9.62164 16.7996 10.4324 16.649 11.5851C16.6289 11.7388 16.6257 11.8944 16.6392 12.0488V14.7828H20.6282L19.9901 18.9924H16.6404V29.1601C23.6269 28.0383 28.7715 21.9399 28.7744 14.7769V14.7769Z" fill="#121212"/>
  </g>
</svg>