<svg width="29" height="30" viewBox="0 0 29 30" fill="none" xmlns="http://www.w3.org/2000/svg">
  <defs>
    <mask id="CBSocialMask1">
      <rect width="100%" height="100%" fill="#FFFFFF" x="0" y="0"></rect>
    </mask>
  </defs>
  <g class="icon-hover__hidden">
    <path fill-rule="evenodd" clip-rule="evenodd" d="M29.1689 15C29.1689 23.2843 22.6392 30 14.5844 30C6.52968 30 0 23.2843 0 15C0 6.71573 6.52968 0 14.5844 0C22.6392 0 29.1689 6.71573 29.1689 15ZM17.4525 20.3389C19.4534 18.3005 19.4477 15.0069 17.4398 12.9758L17.4456 12.9711C17.2309 12.755 16.9981 12.5584 16.7494 12.3836C16.5337 12.2302 16.2403 12.2554 16.0533 12.4435L15.3397 13.1661C15.072 13.4356 14.9282 13.8063 14.9429 14.1883C14.9487 14.3613 15.0347 14.5216 15.1749 14.6206C15.2994 14.7078 15.4159 14.8061 15.523 14.9143L15.5279 14.9193C16.478 15.8841 16.4758 17.4463 15.523 18.4085L13.2454 20.7137C12.2874 21.6711 10.7444 21.6609 9.79891 20.6908C8.85341 19.7206 8.86351 18.1581 9.82153 17.2007L10.2647 16.7519C10.4112 16.6022 10.4607 16.3811 10.3924 16.1821C10.1964 15.5984 10.0858 14.9888 10.064 14.3727C10.0589 14.2324 10.001 14.0996 9.90205 14.0012C9.68845 13.7889 9.34536 13.7922 9.13582 14.0085L7.88042 15.2821C5.94035 17.3053 5.93989 20.5236 7.87926 22.5473C9.86016 24.6145 13.1208 24.6641 15.1622 22.6581L17.4398 20.3518L17.4525 20.3389ZM14.9313 8.1422C16.944 6.10844 20.2027 6.10844 22.2154 8.1422L22.22 8.13985C24.2284 10.178 24.2284 13.4778 22.22 15.5159L20.9623 16.7895C20.8652 16.8897 20.734 16.9483 20.5954 16.9535C20.2963 16.9646 20.045 16.728 20.0341 16.4253C20.0123 15.8092 19.9017 15.1996 19.7057 14.6159C19.6374 14.4169 19.687 14.1958 19.8334 14.0461L20.2766 13.5973C21.2356 12.6386 21.2454 11.0742 20.2986 10.1031C19.3519 9.13206 17.807 9.12207 16.848 10.0808L14.5716 12.3871L14.5667 12.3921C13.6166 13.3569 13.6188 14.919 14.5716 15.8813C14.6787 15.9895 14.7952 16.0878 14.9197 16.175C15.06 16.2741 15.146 16.4343 15.1518 16.6074C15.1665 16.9893 15.0226 17.36 14.7549 17.6296L14.0414 18.3521C13.8544 18.5402 13.5609 18.5655 13.3452 18.412C13.1023 18.2404 12.8744 18.0478 12.6641 17.8365C10.645 15.8067 10.633 12.5038 12.6375 10.4591L12.6537 10.4462L14.9313 8.1422Z" fill="#121212"/>
  </g>
  <g class="icon-hover__showed" mask="url(#CBSocialMask1)">
    <path fill-rule="evenodd" clip-rule="evenodd" d="M29.1689 15C29.1689 23.2843 22.6392 30 14.5844 30C6.52968 30 0 23.2843 0 15C0 6.71573 6.52968 0 14.5844 0C22.6392 0 29.1689 6.71573 29.1689 15ZM17.4525 20.3389C19.4534 18.3005 19.4477 15.0069 17.4398 12.9758L17.4456 12.9711C17.2309 12.755 16.9981 12.5584 16.7494 12.3836C16.5337 12.2302 16.2403 12.2554 16.0533 12.4435L15.3397 13.1661C15.072 13.4356 14.9282 13.8063 14.9429 14.1883C14.9487 14.3613 15.0347 14.5216 15.1749 14.6206C15.2994 14.7078 15.4159 14.8061 15.523 14.9143L15.5279 14.9193C16.478 15.8841 16.4758 17.4463 15.523 18.4085L13.2454 20.7137C12.2874 21.6711 10.7444 21.6609 9.79891 20.6908C8.85341 19.7206 8.86351 18.1581 9.82153 17.2007L10.2647 16.7519C10.4112 16.6022 10.4607 16.3811 10.3924 16.1821C10.1964 15.5984 10.0858 14.9888 10.064 14.3727C10.0589 14.2324 10.001 14.0996 9.90205 14.0012C9.68845 13.7889 9.34536 13.7922 9.13582 14.0085L7.88042 15.2821C5.94035 17.3053 5.93989 20.5236 7.87926 22.5473C9.86016 24.6145 13.1208 24.6641 15.1622 22.6581L17.4398 20.3518L17.4525 20.3389ZM14.9313 8.1422C16.944 6.10844 20.2027 6.10844 22.2154 8.1422L22.22 8.13985C24.2284 10.178 24.2284 13.4778 22.22 15.5159L20.9623 16.7895C20.8652 16.8897 20.734 16.9483 20.5954 16.9535C20.2963 16.9646 20.045 16.728 20.0341 16.4253C20.0123 15.8092 19.9017 15.1996 19.7057 14.6159C19.6374 14.4169 19.687 14.1958 19.8334 14.0461L20.2766 13.5973C21.2356 12.6386 21.2454 11.0742 20.2986 10.1031C19.3519 9.13206 17.807 9.12207 16.848 10.0808L14.5716 12.3871L14.5667 12.3921C13.6166 13.3569 13.6188 14.919 14.5716 15.8813C14.6787 15.9895 14.7952 16.0878 14.9197 16.175C15.06 16.2741 15.146 16.4343 15.1518 16.6074C15.1665 16.9893 15.0226 17.36 14.7549 17.6296L14.0414 18.3521C13.8544 18.5402 13.5609 18.5655 13.3452 18.412C13.1023 18.2404 12.8744 18.0478 12.6641 17.8365C10.645 15.8067 10.633 12.5038 12.6375 10.4591L12.6537 10.4462L14.9313 8.1422Z" fill="#121212"/>
  </g>
</svg>