<svg width="30" height="30" viewBox="0 0 30 30" fill="none" xmlns="http://www.w3.org/2000/svg">
  <defs>
    <mask id="TWSocialMask1">
      <rect width="100%" height="100%" fill="#FFFFFF" x="0" y="0"></rect>
    </mask>
  </defs>
  <g class="icon-hover__hidden">
    <path fill-rule="evenodd" clip-rule="evenodd" d="M29.1689 15C29.1689 23.2843 22.6392 30 14.5844 30C6.52967 30 0 23.2843 0 15C0 6.71573 6.52967 0 14.5844 0C22.6392 0 29.1689 6.71573 29.1689 15ZM23.1925 10.5342C23.9933 10.4361 24.7753 10.2182 25.513 9.88797C24.9704 10.7088 24.2881 11.4253 23.4976 12.004C23.5104 12.179 23.5104 12.354 23.5104 12.5314V12.5315C23.5107 12.5858 23.5107 12.6399 23.5104 12.6942C23.4673 19.081 18.3194 24.2231 12.0122 24.1795C9.81911 24.1869 7.67136 23.5472 5.83154 22.3384C6.15108 22.3772 6.4727 22.3968 6.79456 22.3972C8.61384 22.4002 10.3811 21.7827 11.8115 20.6442C10.0828 20.6111 8.56604 19.469 8.03719 17.8021C8.287 17.8532 8.54121 17.8788 8.796 17.8785C9.15533 17.8786 9.51315 17.8304 9.85995 17.7352C7.97431 17.3492 6.61878 15.6709 6.61936 13.7229V13.6676C7.18081 13.9872 7.81106 14.1626 8.45489 14.1787C6.67656 12.9786 6.12671 10.5848 7.19949 8.71307C9.24896 11.2718 12.2771 12.8261 15.5267 12.9874C15.4559 12.6817 15.4208 12.3685 15.4222 12.0545C15.4207 10.9204 15.8846 9.83651 16.7029 9.06225C18.3318 7.52101 20.8861 7.60878 22.4081 9.25822C23.3114 9.07999 24.1775 8.74573 24.9688 8.27013C24.6676 9.21804 24.0363 10.0229 23.1925 10.5342Z" fill="#121212"/>
  </g>
  <g class="icon-hover__showed" mask="url(#TWSocialMask1)">
    <path fill-rule="evenodd" clip-rule="evenodd" d="M29.1689 15C29.1689 23.2843 22.6392 30 14.5844 30C6.52967 30 0 23.2843 0 15C0 6.71573 6.52967 0 14.5844 0C22.6392 0 29.1689 6.71573 29.1689 15ZM23.1925 10.5342C23.9933 10.4361 24.7753 10.2182 25.513 9.88797C24.9704 10.7088 24.2881 11.4253 23.4976 12.004C23.5104 12.179 23.5104 12.354 23.5104 12.5314V12.5315C23.5107 12.5858 23.5107 12.6399 23.5104 12.6942C23.4673 19.081 18.3194 24.2231 12.0122 24.1795C9.81911 24.1869 7.67136 23.5472 5.83154 22.3384C6.15108 22.3772 6.4727 22.3968 6.79456 22.3972C8.61384 22.4002 10.3811 21.7827 11.8115 20.6442C10.0828 20.6111 8.56604 19.469 8.03719 17.8021C8.287 17.8532 8.54121 17.8788 8.796 17.8785C9.15533 17.8786 9.51315 17.8304 9.85995 17.7352C7.97431 17.3492 6.61878 15.6709 6.61936 13.7229V13.6676C7.18081 13.9872 7.81106 14.1626 8.45489 14.1787C6.67656 12.9786 6.12671 10.5848 7.19949 8.71307C9.24896 11.2718 12.2771 12.8261 15.5267 12.9874C15.4559 12.6817 15.4208 12.3685 15.4222 12.0545C15.4207 10.9204 15.8846 9.83651 16.7029 9.06225C18.3318 7.52101 20.8861 7.60878 22.4081 9.25822C23.3114 9.07999 24.1775 8.74573 24.9688 8.27013C24.6676 9.21804 24.0363 10.0229 23.1925 10.5342Z" fill="#121212"/>
  </g>
</svg>